<mxfile host="app.diagrams.net" modified="2023-09-07T07:21:25.159Z" agent="Mozilla/5.0 (Macintosh; Intel Mac OS X 10_15_7) AppleWebKit/537.36 (KHTML, like Gecko) Chrome/116.0.0.0 Safari/537.36 Edg/116.0.1938.69" etag="ZwPZCuKwM3WWQa90-vQ4" version="21.7.2" type="device">
  <diagram name="Page-1" id="sI6QO4IQNQNPNHqP8YW3">
    <mxGraphModel dx="3457" dy="2502" grid="1" gridSize="10" guides="1" tooltips="1" connect="1" arrows="1" fold="1" page="1" pageScale="1" pageWidth="850" pageHeight="1100" math="0" shadow="0">
      <root>
        <mxCell id="0" />
        <mxCell id="1" parent="0" />
        <mxCell id="QCCOXQuaux2CzOiZ1sox-7" style="edgeStyle=orthogonalEdgeStyle;rounded=0;orthogonalLoop=1;jettySize=auto;html=1;entryX=0;entryY=0.5;entryDx=0;entryDy=0;exitX=1;exitY=0.5;exitDx=0;exitDy=0;strokeWidth=4;" parent="1" source="QCCOXQuaux2CzOiZ1sox-64" target="QCCOXQuaux2CzOiZ1sox-3" edge="1">
          <mxGeometry relative="1" as="geometry">
            <mxPoint x="-60" y="585" as="sourcePoint" />
            <mxPoint y="585" as="targetPoint" />
          </mxGeometry>
        </mxCell>
        <mxCell id="QCCOXQuaux2CzOiZ1sox-8" value="&lt;font style=&quot;font-size: 16px;&quot;&gt;trigger flow&lt;/font&gt;" style="edgeLabel;html=1;align=center;verticalAlign=middle;resizable=0;points=[];fontSize=16;fontStyle=0" parent="QCCOXQuaux2CzOiZ1sox-7" vertex="1" connectable="0">
          <mxGeometry x="-0.025" y="1" relative="1" as="geometry">
            <mxPoint x="-7" y="16" as="offset" />
          </mxGeometry>
        </mxCell>
        <mxCell id="QCCOXQuaux2CzOiZ1sox-6" value="" style="group" parent="1" vertex="1" connectable="0">
          <mxGeometry x="200" y="520" width="130" height="130" as="geometry" />
        </mxCell>
        <mxCell id="QCCOXQuaux2CzOiZ1sox-3" value="&lt;font style=&quot;font-size: 16px;&quot;&gt;&lt;br&gt;&lt;br&gt;&lt;br&gt;Power Automate&lt;br&gt;(SSW.Dory)&lt;br&gt;&lt;/font&gt;" style="whiteSpace=wrap;html=1;aspect=fixed;" parent="QCCOXQuaux2CzOiZ1sox-6" vertex="1">
          <mxGeometry width="130" height="130" as="geometry" />
        </mxCell>
        <mxCell id="QCCOXQuaux2CzOiZ1sox-2" value="" style="shape=image;imageAspect=0;aspect=fixed;verticalLabelPosition=bottom;verticalAlign=top;image=data:image/svg+xml,PHN2ZyB4bWxucz0iaHR0cDovL3d3dy53My5vcmcvMjAwMC9zdmciIGZpbGw9Im5vbmUiIHZpZXdCb3g9IjAgMCA5NiA5NiIgaGVpZ2h0PSI5NiIgd2lkdGg9Ijk2Ij4mI3hhOzxkZWZzPiYjeGE7PGZpbHRlciBpZD0iZmlsdGVyMF9mIj4mI3hhOzxmZUZsb29kIHJlc3VsdD0iQmFja2dyb3VuZEltYWdlRml4IiBmbG9vZC1vcGFjaXR5PSIwIi8+JiN4YTs8ZmVCbGVuZCByZXN1bHQ9InNoYXBlIiBpbjI9IkJhY2tncm91bmRJbWFnZUZpeCIgaW49IlNvdXJjZUdyYXBoaWMiIG1vZGU9Im5vcm1hbCIvPiYjeGE7PGZlR2F1c3NpYW5CbHVyIHJlc3VsdD0iZWZmZWN0MV9mb3JlZ3JvdW5kQmx1ciIgc3RkRGV2aWF0aW9uPSIwLjQiLz4mI3hhOzwvZmlsdGVyPiYjeGE7PGZpbHRlciBpZD0iZmlsdGVyMV9mIj4mI3hhOzxmZUZsb29kIHJlc3VsdD0iQmFja2dyb3VuZEltYWdlRml4IiBmbG9vZC1vcGFjaXR5PSIwIi8+JiN4YTs8ZmVCbGVuZCByZXN1bHQ9InNoYXBlIiBpbjI9IkJhY2tncm91bmRJbWFnZUZpeCIgaW49IlNvdXJjZUdyYXBoaWMiIG1vZGU9Im5vcm1hbCIvPiYjeGE7PGZlR2F1c3NpYW5CbHVyIHJlc3VsdD0iZWZmZWN0MV9mb3JlZ3JvdW5kQmx1ciIgc3RkRGV2aWF0aW9uPSI0Ii8+JiN4YTs8L2ZpbHRlcj4mI3hhOzxsaW5lYXJHcmFkaWVudCBncmFkaWVudFVuaXRzPSJ1c2VyU3BhY2VPblVzZSIgeTI9IjEwIiB4Mj0iMjkiIHkxPSI1NSIgeDE9IjQzIiBpZD0icGFpbnQwX2xpbmVhciI+JiN4YTs8c3RvcCBzdG9wLWNvbG9yPSIjMEQzNkE1Ii8+JiN4YTs8c3RvcCBzdG9wLWNvbG9yPSIjMTE1MkQ0IiBvZmZzZXQ9IjEiLz4mI3hhOzwvbGluZWFyR3JhZGllbnQ+JiN4YTs8bGluZWFyR3JhZGllbnQgZ3JhZGllbnRVbml0cz0idXNlclNwYWNlT25Vc2UiIHkyPSI4NiIgeDI9IjQ2IiB5MT0iMTAiIHgxPSI0NiIgaWQ9InBhaW50MV9saW5lYXIiPiYjeGE7PHN0b3Agc3RvcC1jb2xvcj0iIzg0Q0FGRiIvPiYjeGE7PHN0b3Agc3RvcC1jb2xvcj0iIzYxQjFGQiIgb2Zmc2V0PSIxIi8+JiN4YTs8L2xpbmVhckdyYWRpZW50PiYjeGE7PGxpbmVhckdyYWRpZW50IGdyYWRpZW50VW5pdHM9InVzZXJTcGFjZU9uVXNlIiB5Mj0iODYiIHgyPSIzNy41IiB5MT0iMTAiIHgxPSIzNy41IiBpZD0icGFpbnQyX2xpbmVhciI+JiN4YTs8c3RvcCBzdG9wLWNvbG9yPSIjM0I5MEY1Ii8+JiN4YTs8c3RvcCBzdG9wLWNvbG9yPSIjMkE3OEVFIiBvZmZzZXQ9IjEiLz4mI3hhOzwvbGluZWFyR3JhZGllbnQ+JiN4YTs8Y2xpcFBhdGggaWQ9ImNsaXAwIj4mI3hhOzxyZWN0IGZpbGw9IndoaXRlIiBoZWlnaHQ9Ijk2IiB3aWR0aD0iOTYiLz4mI3hhOzwvY2xpcFBhdGg+JiN4YTs8Y2xpcFBhdGggaWQ9ImNsaXAxIj4mI3hhOzxyZWN0IGZpbGw9IndoaXRlIiBoZWlnaHQ9Ijk2IiB3aWR0aD0iOTYiLz4mI3hhOzwvY2xpcFBhdGg+JiN4YTs8L2RlZnM+JiN4YTs8ZyBjbGlwLXBhdGg9InVybCgjY2xpcDApIj4mI3hhOzxnIGNsaXAtcGF0aD0idXJsKCNjbGlwMSkiPiYjeGE7PG1hc2sgaGVpZ2h0PSI3NiIgd2lkdGg9Ijk3IiB5PSIxMCIgeD0iLTEiIG1hc2tVbml0cz0idXNlclNwYWNlT25Vc2UiIGlkPSJtYXNrMCI+JiN4YTs8cGF0aCBmaWxsPSJ3aGl0ZSIgZD0iTTYxLjIxMTYgMTBDNjIuMzQ5NiAxMCA2My40MzM3IDEwLjQ4NDcgNjQuMTkyNSAxMS4zMzI4TDk0LjYxMzYgNDUuMzMyOEM5NS45NzIzIDQ2Ljg1MTQgOTUuOTcyMyA0OS4xNDg2IDk0LjYxMzYgNTAuNjY3Mkw2NC4xOTI1IDg0LjY2NzJDNjMuNDMzNyA4NS41MTUzIDYyLjM0OTYgODYgNjEuMjExNiA4NkgzLjk0NjM0QzAuNDg4Nzc3IDg2IC0xLjM0MDEyIDgxLjkwOTUgMC45NjUzNjYgNzkuMzMyOEwyOSA0OEwwLjk2NTM2NiAxNi42NjcyQy0xLjM0MDEyIDE0LjA5MDUgMC40ODg3NzcgMTAgMy45NDYzNCAxMEg2MS4yMTE2WiIvPiYjeGE7PC9tYXNrPiYjeGE7PGcgbWFzaz0idXJsKCNtYXNrMCkiPiYjeGE7PHBhdGggZmlsbD0idXJsKCNwYWludDBfbGluZWFyKSIgZD0iTTYzIDEwTDI5IDQ4TC01IDEwSDYzWiIvPiYjeGE7PGcgZmlsdGVyPSJ1cmwoI2ZpbHRlcjBfZikiPiYjeGE7PHBhdGggZmlsbC1vcGFjaXR5PSIwLjI0IiBmaWxsPSJibGFjayIgZD0iTTYzIDEwLjRMLTUgODYuNEg2M0w5NyA0OC40TDYzIDEwLjRaIi8+JiN4YTs8L2c+JiN4YTs8ZyBmaWx0ZXI9InVybCgjZmlsdGVyMV9mKSI+JiN4YTs8cGF0aCBmaWxsLW9wYWNpdHk9IjAuMzIiIGZpbGw9ImJsYWNrIiBkPSJNNjMgMTJMLTUgODhINjNMOTcgNTBMNjMgMTJaIi8+JiN4YTs8L2c+JiN4YTs8cGF0aCBmaWxsPSJ1cmwoI3BhaW50MV9saW5lYXIpIiBkPSJNLTUgODZMNjMgMTBMOTcgNDhMNjMgODZILTVaIi8+JiN4YTs8cGF0aCBmaWxsPSJ1cmwoI3BhaW50Ml9saW5lYXIpIiBkPSJNLTUgODZMNjMgMTBMODAgMjlMMjkgODZILTVaIi8+JiN4YTs8L2c+JiN4YTs8L2c+JiN4YTs8L2c+JiN4YTs8L3N2Zz4=;container=1;" parent="QCCOXQuaux2CzOiZ1sox-6" vertex="1">
          <mxGeometry x="40" y="10" width="50" height="50" as="geometry">
            <mxRectangle x="40" y="10" width="50" height="40" as="alternateBounds" />
          </mxGeometry>
        </mxCell>
        <mxCell id="QCCOXQuaux2CzOiZ1sox-16" value="" style="group" parent="1" vertex="1" connectable="0">
          <mxGeometry x="1105" y="520" width="130" height="130" as="geometry" />
        </mxCell>
        <mxCell id="QCCOXQuaux2CzOiZ1sox-14" value="&lt;font style=&quot;font-size: 16px;&quot;&gt;&lt;br&gt;&lt;br&gt;&lt;br&gt;&lt;br&gt;Outlook&lt;/font&gt;" style="rounded=0;whiteSpace=wrap;html=1;" parent="QCCOXQuaux2CzOiZ1sox-16" vertex="1">
          <mxGeometry width="130" height="130" as="geometry" />
        </mxCell>
        <mxCell id="QCCOXQuaux2CzOiZ1sox-12" value="" style="shape=image;html=1;verticalAlign=top;verticalLabelPosition=bottom;labelBackgroundColor=#ffffff;imageAspect=0;aspect=fixed;image=https://cdn0.iconfinder.com/data/icons/logos-microsoft-office-365/128/Microsoft_Office-07-128.png" parent="QCCOXQuaux2CzOiZ1sox-16" vertex="1">
          <mxGeometry x="40" y="20" width="50" height="50" as="geometry" />
        </mxCell>
        <mxCell id="QCCOXQuaux2CzOiZ1sox-41" value="" style="group" parent="1" vertex="1" connectable="0">
          <mxGeometry x="530" y="520" width="130" height="130" as="geometry" />
        </mxCell>
        <mxCell id="QCCOXQuaux2CzOiZ1sox-20" value="&lt;font style=&quot;font-size: 16px;&quot;&gt;&lt;br&gt;&lt;br&gt;&lt;br&gt;&lt;br&gt;SSWDory SharePoint Site&lt;/font&gt;" style="rounded=0;whiteSpace=wrap;html=1;" parent="QCCOXQuaux2CzOiZ1sox-41" vertex="1">
          <mxGeometry width="130" height="130" as="geometry" />
        </mxCell>
        <mxCell id="QCCOXQuaux2CzOiZ1sox-19" value="" style="shape=image;html=1;verticalAlign=top;verticalLabelPosition=bottom;labelBackgroundColor=#ffffff;imageAspect=0;aspect=fixed;image=https://cdn0.iconfinder.com/data/icons/logos-microsoft-office-365/128/Microsoft_Office-09-128.png" parent="QCCOXQuaux2CzOiZ1sox-41" vertex="1">
          <mxGeometry x="40" y="20" width="50" height="50" as="geometry" />
        </mxCell>
        <mxCell id="QCCOXQuaux2CzOiZ1sox-65" value="" style="group;fontSize=14;" parent="1" vertex="1" connectable="0">
          <mxGeometry x="-150" y="520" width="130" height="130" as="geometry" />
        </mxCell>
        <mxCell id="QCCOXQuaux2CzOiZ1sox-64" value="" style="whiteSpace=wrap;html=1;aspect=fixed;" parent="QCCOXQuaux2CzOiZ1sox-65" vertex="1">
          <mxGeometry width="130" height="130" as="geometry" />
        </mxCell>
        <mxCell id="QCCOXQuaux2CzOiZ1sox-5" value="" style="html=1;verticalLabelPosition=bottom;align=center;labelBackgroundColor=#ffffff;verticalAlign=top;strokeWidth=2;strokeColor=#0080F0;shadow=0;dashed=0;shape=mxgraph.ios7.icons.alarm_clock;" parent="QCCOXQuaux2CzOiZ1sox-65" vertex="1">
          <mxGeometry x="45" y="20" width="40" height="40" as="geometry" />
        </mxCell>
        <mxCell id="QCCOXQuaux2CzOiZ1sox-63" value="E.g., 1 day" style="text;html=1;strokeColor=none;fillColor=none;align=center;verticalAlign=middle;whiteSpace=wrap;rounded=0;fontSize=16;" parent="QCCOXQuaux2CzOiZ1sox-65" vertex="1">
          <mxGeometry x="18.75" y="80" width="92.5" height="30" as="geometry" />
        </mxCell>
        <mxCell id="QCCOXQuaux2CzOiZ1sox-82" value="https://github.com/SSWConsulting/SSW.Dory" style="text;html=1;align=center;verticalAlign=middle;resizable=0;points=[];autosize=1;strokeColor=none;fillColor=none;fontSize=16;" parent="1" vertex="1">
          <mxGeometry x="-150" y="800" width="340" height="30" as="geometry" />
        </mxCell>
        <mxCell id="QCCOXQuaux2CzOiZ1sox-95" value="" style="group" parent="1" vertex="1" connectable="0">
          <mxGeometry x="1340" y="515" width="100" height="140" as="geometry" />
        </mxCell>
        <mxCell id="QCCOXQuaux2CzOiZ1sox-69" value="&lt;font style=&quot;font-size: 16px;&quot;&gt;&lt;br&gt;&lt;br&gt;&lt;br&gt;&lt;br&gt;&lt;br&gt;&lt;br style=&quot;&quot;&gt;&lt;font style=&quot;font-size: 16px;&quot;&gt;User&lt;/font&gt;&lt;/font&gt;" style="rounded=0;whiteSpace=wrap;html=1;" parent="QCCOXQuaux2CzOiZ1sox-95" vertex="1">
          <mxGeometry width="100" height="140" as="geometry" />
        </mxCell>
        <mxCell id="QCCOXQuaux2CzOiZ1sox-42" value="" style="shape=umlActor;verticalLabelPosition=bottom;verticalAlign=top;html=1;outlineConnect=0;" parent="QCCOXQuaux2CzOiZ1sox-95" vertex="1">
          <mxGeometry x="35" y="30" width="30" height="60" as="geometry" />
        </mxCell>
        <mxCell id="QCCOXQuaux2CzOiZ1sox-100" value="" style="group" parent="1" vertex="1" connectable="0">
          <mxGeometry x="830" y="520" width="130" height="130" as="geometry" />
        </mxCell>
        <mxCell id="QCCOXQuaux2CzOiZ1sox-103" value="&lt;font style=&quot;font-size: 14px;&quot;&gt;&lt;br&gt;&lt;br&gt;&lt;br&gt;&lt;br&gt;Power Automate&lt;br&gt;(SSW.Dory.Emailing)&lt;br&gt;&lt;/font&gt;" style="whiteSpace=wrap;html=1;aspect=fixed;" parent="QCCOXQuaux2CzOiZ1sox-100" vertex="1">
          <mxGeometry width="130" height="130" as="geometry" />
        </mxCell>
        <mxCell id="QCCOXQuaux2CzOiZ1sox-104" value="" style="shape=image;imageAspect=0;aspect=fixed;verticalLabelPosition=bottom;verticalAlign=top;image=data:image/svg+xml,PHN2ZyB4bWxucz0iaHR0cDovL3d3dy53My5vcmcvMjAwMC9zdmciIGZpbGw9Im5vbmUiIHZpZXdCb3g9IjAgMCA5NiA5NiIgaGVpZ2h0PSI5NiIgd2lkdGg9Ijk2Ij4mI3hhOzxkZWZzPiYjeGE7PGZpbHRlciBpZD0iZmlsdGVyMF9mIj4mI3hhOzxmZUZsb29kIHJlc3VsdD0iQmFja2dyb3VuZEltYWdlRml4IiBmbG9vZC1vcGFjaXR5PSIwIi8+JiN4YTs8ZmVCbGVuZCByZXN1bHQ9InNoYXBlIiBpbjI9IkJhY2tncm91bmRJbWFnZUZpeCIgaW49IlNvdXJjZUdyYXBoaWMiIG1vZGU9Im5vcm1hbCIvPiYjeGE7PGZlR2F1c3NpYW5CbHVyIHJlc3VsdD0iZWZmZWN0MV9mb3JlZ3JvdW5kQmx1ciIgc3RkRGV2aWF0aW9uPSIwLjQiLz4mI3hhOzwvZmlsdGVyPiYjeGE7PGZpbHRlciBpZD0iZmlsdGVyMV9mIj4mI3hhOzxmZUZsb29kIHJlc3VsdD0iQmFja2dyb3VuZEltYWdlRml4IiBmbG9vZC1vcGFjaXR5PSIwIi8+JiN4YTs8ZmVCbGVuZCByZXN1bHQ9InNoYXBlIiBpbjI9IkJhY2tncm91bmRJbWFnZUZpeCIgaW49IlNvdXJjZUdyYXBoaWMiIG1vZGU9Im5vcm1hbCIvPiYjeGE7PGZlR2F1c3NpYW5CbHVyIHJlc3VsdD0iZWZmZWN0MV9mb3JlZ3JvdW5kQmx1ciIgc3RkRGV2aWF0aW9uPSI0Ii8+JiN4YTs8L2ZpbHRlcj4mI3hhOzxsaW5lYXJHcmFkaWVudCBncmFkaWVudFVuaXRzPSJ1c2VyU3BhY2VPblVzZSIgeTI9IjEwIiB4Mj0iMjkiIHkxPSI1NSIgeDE9IjQzIiBpZD0icGFpbnQwX2xpbmVhciI+JiN4YTs8c3RvcCBzdG9wLWNvbG9yPSIjMEQzNkE1Ii8+JiN4YTs8c3RvcCBzdG9wLWNvbG9yPSIjMTE1MkQ0IiBvZmZzZXQ9IjEiLz4mI3hhOzwvbGluZWFyR3JhZGllbnQ+JiN4YTs8bGluZWFyR3JhZGllbnQgZ3JhZGllbnRVbml0cz0idXNlclNwYWNlT25Vc2UiIHkyPSI4NiIgeDI9IjQ2IiB5MT0iMTAiIHgxPSI0NiIgaWQ9InBhaW50MV9saW5lYXIiPiYjeGE7PHN0b3Agc3RvcC1jb2xvcj0iIzg0Q0FGRiIvPiYjeGE7PHN0b3Agc3RvcC1jb2xvcj0iIzYxQjFGQiIgb2Zmc2V0PSIxIi8+JiN4YTs8L2xpbmVhckdyYWRpZW50PiYjeGE7PGxpbmVhckdyYWRpZW50IGdyYWRpZW50VW5pdHM9InVzZXJTcGFjZU9uVXNlIiB5Mj0iODYiIHgyPSIzNy41IiB5MT0iMTAiIHgxPSIzNy41IiBpZD0icGFpbnQyX2xpbmVhciI+JiN4YTs8c3RvcCBzdG9wLWNvbG9yPSIjM0I5MEY1Ii8+JiN4YTs8c3RvcCBzdG9wLWNvbG9yPSIjMkE3OEVFIiBvZmZzZXQ9IjEiLz4mI3hhOzwvbGluZWFyR3JhZGllbnQ+JiN4YTs8Y2xpcFBhdGggaWQ9ImNsaXAwIj4mI3hhOzxyZWN0IGZpbGw9IndoaXRlIiBoZWlnaHQ9Ijk2IiB3aWR0aD0iOTYiLz4mI3hhOzwvY2xpcFBhdGg+JiN4YTs8Y2xpcFBhdGggaWQ9ImNsaXAxIj4mI3hhOzxyZWN0IGZpbGw9IndoaXRlIiBoZWlnaHQ9Ijk2IiB3aWR0aD0iOTYiLz4mI3hhOzwvY2xpcFBhdGg+JiN4YTs8L2RlZnM+JiN4YTs8ZyBjbGlwLXBhdGg9InVybCgjY2xpcDApIj4mI3hhOzxnIGNsaXAtcGF0aD0idXJsKCNjbGlwMSkiPiYjeGE7PG1hc2sgaGVpZ2h0PSI3NiIgd2lkdGg9Ijk3IiB5PSIxMCIgeD0iLTEiIG1hc2tVbml0cz0idXNlclNwYWNlT25Vc2UiIGlkPSJtYXNrMCI+JiN4YTs8cGF0aCBmaWxsPSJ3aGl0ZSIgZD0iTTYxLjIxMTYgMTBDNjIuMzQ5NiAxMCA2My40MzM3IDEwLjQ4NDcgNjQuMTkyNSAxMS4zMzI4TDk0LjYxMzYgNDUuMzMyOEM5NS45NzIzIDQ2Ljg1MTQgOTUuOTcyMyA0OS4xNDg2IDk0LjYxMzYgNTAuNjY3Mkw2NC4xOTI1IDg0LjY2NzJDNjMuNDMzNyA4NS41MTUzIDYyLjM0OTYgODYgNjEuMjExNiA4NkgzLjk0NjM0QzAuNDg4Nzc3IDg2IC0xLjM0MDEyIDgxLjkwOTUgMC45NjUzNjYgNzkuMzMyOEwyOSA0OEwwLjk2NTM2NiAxNi42NjcyQy0xLjM0MDEyIDE0LjA5MDUgMC40ODg3NzcgMTAgMy45NDYzNCAxMEg2MS4yMTE2WiIvPiYjeGE7PC9tYXNrPiYjeGE7PGcgbWFzaz0idXJsKCNtYXNrMCkiPiYjeGE7PHBhdGggZmlsbD0idXJsKCNwYWludDBfbGluZWFyKSIgZD0iTTYzIDEwTDI5IDQ4TC01IDEwSDYzWiIvPiYjeGE7PGcgZmlsdGVyPSJ1cmwoI2ZpbHRlcjBfZikiPiYjeGE7PHBhdGggZmlsbC1vcGFjaXR5PSIwLjI0IiBmaWxsPSJibGFjayIgZD0iTTYzIDEwLjRMLTUgODYuNEg2M0w5NyA0OC40TDYzIDEwLjRaIi8+JiN4YTs8L2c+JiN4YTs8ZyBmaWx0ZXI9InVybCgjZmlsdGVyMV9mKSI+JiN4YTs8cGF0aCBmaWxsLW9wYWNpdHk9IjAuMzIiIGZpbGw9ImJsYWNrIiBkPSJNNjMgMTJMLTUgODhINjNMOTcgNTBMNjMgMTJaIi8+JiN4YTs8L2c+JiN4YTs8cGF0aCBmaWxsPSJ1cmwoI3BhaW50MV9saW5lYXIpIiBkPSJNLTUgODZMNjMgMTBMOTcgNDhMNjMgODZILTVaIi8+JiN4YTs8cGF0aCBmaWxsPSJ1cmwoI3BhaW50Ml9saW5lYXIpIiBkPSJNLTUgODZMNjMgMTBMODAgMjlMMjkgODZILTVaIi8+JiN4YTs8L2c+JiN4YTs8L2c+JiN4YTs8L2c+JiN4YTs8L3N2Zz4=;container=1;" parent="QCCOXQuaux2CzOiZ1sox-100" vertex="1">
          <mxGeometry x="40" y="10" width="50" height="50" as="geometry">
            <mxRectangle x="40" y="10" width="50" height="40" as="alternateBounds" />
          </mxGeometry>
        </mxCell>
        <mxCell id="QCCOXQuaux2CzOiZ1sox-115" style="edgeStyle=orthogonalEdgeStyle;rounded=0;orthogonalLoop=1;jettySize=auto;html=1;exitX=1;exitY=0.5;exitDx=0;exitDy=0;entryX=0;entryY=0.5;entryDx=0;entryDy=0;strokeWidth=4;" parent="1" source="QCCOXQuaux2CzOiZ1sox-103" target="QCCOXQuaux2CzOiZ1sox-14" edge="1">
          <mxGeometry relative="1" as="geometry" />
        </mxCell>
        <mxCell id="QCCOXQuaux2CzOiZ1sox-116" value="send emails" style="edgeLabel;html=1;align=center;verticalAlign=middle;resizable=0;points=[];fontSize=15;" parent="QCCOXQuaux2CzOiZ1sox-115" vertex="1" connectable="0">
          <mxGeometry x="-0.1448" y="-2" relative="1" as="geometry">
            <mxPoint x="-1" y="23" as="offset" />
          </mxGeometry>
        </mxCell>
        <mxCell id="QCCOXQuaux2CzOiZ1sox-117" style="edgeStyle=orthogonalEdgeStyle;rounded=0;orthogonalLoop=1;jettySize=auto;html=1;exitX=1;exitY=0.5;exitDx=0;exitDy=0;entryX=0;entryY=0.5;entryDx=0;entryDy=0;strokeWidth=4;" parent="1" source="QCCOXQuaux2CzOiZ1sox-20" target="QCCOXQuaux2CzOiZ1sox-103" edge="1">
          <mxGeometry relative="1" as="geometry" />
        </mxCell>
        <mxCell id="QCCOXQuaux2CzOiZ1sox-118" value="read action items" style="edgeLabel;html=1;align=center;verticalAlign=middle;resizable=0;points=[];fontSize=15;" parent="QCCOXQuaux2CzOiZ1sox-117" vertex="1" connectable="0">
          <mxGeometry x="-0.098" y="3" relative="1" as="geometry">
            <mxPoint x="3" y="18" as="offset" />
          </mxGeometry>
        </mxCell>
        <mxCell id="QCCOXQuaux2CzOiZ1sox-122" style="edgeStyle=orthogonalEdgeStyle;rounded=0;orthogonalLoop=1;jettySize=auto;html=1;exitX=1;exitY=0.5;exitDx=0;exitDy=0;strokeWidth=4;" parent="1" source="QCCOXQuaux2CzOiZ1sox-14" target="QCCOXQuaux2CzOiZ1sox-69" edge="1">
          <mxGeometry relative="1" as="geometry" />
        </mxCell>
        <mxCell id="QCCOXQuaux2CzOiZ1sox-123" value="read emails" style="edgeLabel;html=1;align=center;verticalAlign=middle;resizable=0;points=[];fontSize=15;" parent="QCCOXQuaux2CzOiZ1sox-122" vertex="1" connectable="0">
          <mxGeometry x="-0.1048" y="-1" relative="1" as="geometry">
            <mxPoint y="19" as="offset" />
          </mxGeometry>
        </mxCell>
        <mxCell id="QCCOXQuaux2CzOiZ1sox-113" style="edgeStyle=orthogonalEdgeStyle;rounded=0;orthogonalLoop=1;jettySize=auto;html=1;exitX=1;exitY=0.5;exitDx=0;exitDy=0;strokeWidth=4;entryX=0;entryY=0.5;entryDx=0;entryDy=0;" parent="1" source="QCCOXQuaux2CzOiZ1sox-3" target="QCCOXQuaux2CzOiZ1sox-20" edge="1">
          <mxGeometry relative="1" as="geometry">
            <mxPoint x="570" y="585" as="targetPoint" />
          </mxGeometry>
        </mxCell>
        <mxCell id="QCCOXQuaux2CzOiZ1sox-114" value="write new action items" style="edgeLabel;html=1;align=center;verticalAlign=middle;resizable=0;points=[];fontSize=15;" parent="QCCOXQuaux2CzOiZ1sox-113" vertex="1" connectable="0">
          <mxGeometry x="-0.0879" y="-1" relative="1" as="geometry">
            <mxPoint x="7" y="14" as="offset" />
          </mxGeometry>
        </mxCell>
        <mxCell id="QCCOXQuaux2CzOiZ1sox-125" style="edgeStyle=orthogonalEdgeStyle;rounded=0;orthogonalLoop=1;jettySize=auto;html=1;exitX=0.5;exitY=0;exitDx=0;exitDy=0;entryX=0.5;entryY=0;entryDx=0;entryDy=0;strokeWidth=4;" parent="1" source="QCCOXQuaux2CzOiZ1sox-20" target="QCCOXQuaux2CzOiZ1sox-69" edge="1">
          <mxGeometry relative="1" as="geometry">
            <Array as="points">
              <mxPoint x="595" y="410" />
              <mxPoint x="1390" y="410" />
            </Array>
          </mxGeometry>
        </mxCell>
        <mxCell id="QCCOXQuaux2CzOiZ1sox-126" value="&lt;font style=&quot;font-size: 15px;&quot;&gt;view action items&lt;/font&gt;" style="edgeLabel;html=1;align=center;verticalAlign=middle;resizable=0;points=[];" parent="QCCOXQuaux2CzOiZ1sox-125" vertex="1" connectable="0">
          <mxGeometry x="-0.1294" y="-3" relative="1" as="geometry">
            <mxPoint x="15" y="17" as="offset" />
          </mxGeometry>
        </mxCell>
        <mxCell id="QCCOXQuaux2CzOiZ1sox-127" value="" style="group" parent="1" vertex="1" connectable="0">
          <mxGeometry x="120" y="-120" width="380" height="220" as="geometry" />
        </mxCell>
        <mxCell id="QCCOXQuaux2CzOiZ1sox-61" value="" style="rounded=0;whiteSpace=wrap;html=1;strokeWidth=4;" parent="QCCOXQuaux2CzOiZ1sox-127" vertex="1">
          <mxGeometry width="380" height="220" as="geometry" />
        </mxCell>
        <mxCell id="QCCOXQuaux2CzOiZ1sox-33" value="" style="group;strokeWidth=1;" parent="QCCOXQuaux2CzOiZ1sox-127" vertex="1" connectable="0">
          <mxGeometry x="200.55555555555557" y="60" width="137.22222222222223" height="130" as="geometry" />
        </mxCell>
        <mxCell id="QCCOXQuaux2CzOiZ1sox-30" value="&lt;font style=&quot;font-size: 16px;&quot;&gt;&lt;br&gt;&lt;br&gt;&lt;br&gt;&lt;br&gt;GitHub&lt;/font&gt;" style="rounded=0;whiteSpace=wrap;html=1;container=0;" parent="QCCOXQuaux2CzOiZ1sox-33" vertex="1">
          <mxGeometry width="137.22222222222223" height="130" as="geometry" />
        </mxCell>
        <mxCell id="QCCOXQuaux2CzOiZ1sox-28" value="" style="shape=image;html=1;verticalAlign=top;verticalLabelPosition=bottom;labelBackgroundColor=#ffffff;imageAspect=0;aspect=fixed;image=https://cdn4.iconfinder.com/data/icons/miu-black-social-2/60/github-128.png;container=0;" parent="QCCOXQuaux2CzOiZ1sox-33" vertex="1">
          <mxGeometry x="42.22222222222222" y="15" width="50" height="50" as="geometry" />
        </mxCell>
        <mxCell id="QCCOXQuaux2CzOiZ1sox-37" value="" style="group" parent="QCCOXQuaux2CzOiZ1sox-127" vertex="1" connectable="0">
          <mxGeometry x="31.666666666666668" y="60" width="137.22222222222223" height="130" as="geometry" />
        </mxCell>
        <mxCell id="QCCOXQuaux2CzOiZ1sox-25" value="&lt;font style=&quot;font-size: 16px;&quot;&gt;&lt;br&gt;&lt;br&gt;&lt;br&gt;&lt;br&gt;SharePoint&lt;/font&gt;" style="rounded=0;whiteSpace=wrap;html=1;" parent="QCCOXQuaux2CzOiZ1sox-37" vertex="1">
          <mxGeometry width="137.22222222222223" height="130" as="geometry" />
        </mxCell>
        <mxCell id="QCCOXQuaux2CzOiZ1sox-26" value="" style="shape=image;html=1;verticalAlign=top;verticalLabelPosition=bottom;labelBackgroundColor=#ffffff;imageAspect=0;aspect=fixed;image=https://cdn0.iconfinder.com/data/icons/logos-microsoft-office-365/128/Microsoft_Office-09-128.png" parent="QCCOXQuaux2CzOiZ1sox-37" vertex="1">
          <mxGeometry x="42.22222222222222" y="20" width="50" height="50" as="geometry" />
        </mxCell>
        <mxCell id="QCCOXQuaux2CzOiZ1sox-62" value="Data Sources" style="text;html=1;strokeColor=none;fillColor=none;align=center;verticalAlign=middle;whiteSpace=wrap;rounded=0;fontSize=20;fontStyle=1" parent="QCCOXQuaux2CzOiZ1sox-127" vertex="1">
          <mxGeometry x="110.83333333333334" y="10" width="158.33333333333334" height="30" as="geometry" />
        </mxCell>
        <mxCell id="QCCOXQuaux2CzOiZ1sox-132" value="" style="group" parent="1" vertex="1" connectable="0">
          <mxGeometry x="-10" y="200" width="180" height="130" as="geometry" />
        </mxCell>
        <mxCell id="QCCOXQuaux2CzOiZ1sox-131" value="&lt;font style=&quot;font-size: 16px;&quot;&gt;&lt;br&gt;&lt;br&gt;&lt;br&gt;Power Automate&lt;br&gt;(SSW.Dory.Sharepoint)&lt;/font&gt;" style="rounded=0;whiteSpace=wrap;html=1;" parent="QCCOXQuaux2CzOiZ1sox-132" vertex="1">
          <mxGeometry width="180" height="130" as="geometry" />
        </mxCell>
        <mxCell id="QCCOXQuaux2CzOiZ1sox-130" value="" style="shape=image;imageAspect=0;aspect=fixed;verticalLabelPosition=bottom;verticalAlign=top;image=data:image/svg+xml,PHN2ZyB4bWxucz0iaHR0cDovL3d3dy53My5vcmcvMjAwMC9zdmciIGZpbGw9Im5vbmUiIHZpZXdCb3g9IjAgMCA5NiA5NiIgaGVpZ2h0PSI5NiIgd2lkdGg9Ijk2Ij4mI3hhOzxkZWZzPiYjeGE7PGZpbHRlciBpZD0iZmlsdGVyMF9mIj4mI3hhOzxmZUZsb29kIHJlc3VsdD0iQmFja2dyb3VuZEltYWdlRml4IiBmbG9vZC1vcGFjaXR5PSIwIi8+JiN4YTs8ZmVCbGVuZCByZXN1bHQ9InNoYXBlIiBpbjI9IkJhY2tncm91bmRJbWFnZUZpeCIgaW49IlNvdXJjZUdyYXBoaWMiIG1vZGU9Im5vcm1hbCIvPiYjeGE7PGZlR2F1c3NpYW5CbHVyIHJlc3VsdD0iZWZmZWN0MV9mb3JlZ3JvdW5kQmx1ciIgc3RkRGV2aWF0aW9uPSIwLjQiLz4mI3hhOzwvZmlsdGVyPiYjeGE7PGZpbHRlciBpZD0iZmlsdGVyMV9mIj4mI3hhOzxmZUZsb29kIHJlc3VsdD0iQmFja2dyb3VuZEltYWdlRml4IiBmbG9vZC1vcGFjaXR5PSIwIi8+JiN4YTs8ZmVCbGVuZCByZXN1bHQ9InNoYXBlIiBpbjI9IkJhY2tncm91bmRJbWFnZUZpeCIgaW49IlNvdXJjZUdyYXBoaWMiIG1vZGU9Im5vcm1hbCIvPiYjeGE7PGZlR2F1c3NpYW5CbHVyIHJlc3VsdD0iZWZmZWN0MV9mb3JlZ3JvdW5kQmx1ciIgc3RkRGV2aWF0aW9uPSI0Ii8+JiN4YTs8L2ZpbHRlcj4mI3hhOzxsaW5lYXJHcmFkaWVudCBncmFkaWVudFVuaXRzPSJ1c2VyU3BhY2VPblVzZSIgeTI9IjEwIiB4Mj0iMjkiIHkxPSI1NSIgeDE9IjQzIiBpZD0icGFpbnQwX2xpbmVhciI+JiN4YTs8c3RvcCBzdG9wLWNvbG9yPSIjMEQzNkE1Ii8+JiN4YTs8c3RvcCBzdG9wLWNvbG9yPSIjMTE1MkQ0IiBvZmZzZXQ9IjEiLz4mI3hhOzwvbGluZWFyR3JhZGllbnQ+JiN4YTs8bGluZWFyR3JhZGllbnQgZ3JhZGllbnRVbml0cz0idXNlclNwYWNlT25Vc2UiIHkyPSI4NiIgeDI9IjQ2IiB5MT0iMTAiIHgxPSI0NiIgaWQ9InBhaW50MV9saW5lYXIiPiYjeGE7PHN0b3Agc3RvcC1jb2xvcj0iIzg0Q0FGRiIvPiYjeGE7PHN0b3Agc3RvcC1jb2xvcj0iIzYxQjFGQiIgb2Zmc2V0PSIxIi8+JiN4YTs8L2xpbmVhckdyYWRpZW50PiYjeGE7PGxpbmVhckdyYWRpZW50IGdyYWRpZW50VW5pdHM9InVzZXJTcGFjZU9uVXNlIiB5Mj0iODYiIHgyPSIzNy41IiB5MT0iMTAiIHgxPSIzNy41IiBpZD0icGFpbnQyX2xpbmVhciI+JiN4YTs8c3RvcCBzdG9wLWNvbG9yPSIjM0I5MEY1Ii8+JiN4YTs8c3RvcCBzdG9wLWNvbG9yPSIjMkE3OEVFIiBvZmZzZXQ9IjEiLz4mI3hhOzwvbGluZWFyR3JhZGllbnQ+JiN4YTs8Y2xpcFBhdGggaWQ9ImNsaXAwIj4mI3hhOzxyZWN0IGZpbGw9IndoaXRlIiBoZWlnaHQ9Ijk2IiB3aWR0aD0iOTYiLz4mI3hhOzwvY2xpcFBhdGg+JiN4YTs8Y2xpcFBhdGggaWQ9ImNsaXAxIj4mI3hhOzxyZWN0IGZpbGw9IndoaXRlIiBoZWlnaHQ9Ijk2IiB3aWR0aD0iOTYiLz4mI3hhOzwvY2xpcFBhdGg+JiN4YTs8L2RlZnM+JiN4YTs8ZyBjbGlwLXBhdGg9InVybCgjY2xpcDApIj4mI3hhOzxnIGNsaXAtcGF0aD0idXJsKCNjbGlwMSkiPiYjeGE7PG1hc2sgaGVpZ2h0PSI3NiIgd2lkdGg9Ijk3IiB5PSIxMCIgeD0iLTEiIG1hc2tVbml0cz0idXNlclNwYWNlT25Vc2UiIGlkPSJtYXNrMCI+JiN4YTs8cGF0aCBmaWxsPSJ3aGl0ZSIgZD0iTTYxLjIxMTYgMTBDNjIuMzQ5NiAxMCA2My40MzM3IDEwLjQ4NDcgNjQuMTkyNSAxMS4zMzI4TDk0LjYxMzYgNDUuMzMyOEM5NS45NzIzIDQ2Ljg1MTQgOTUuOTcyMyA0OS4xNDg2IDk0LjYxMzYgNTAuNjY3Mkw2NC4xOTI1IDg0LjY2NzJDNjMuNDMzNyA4NS41MTUzIDYyLjM0OTYgODYgNjEuMjExNiA4NkgzLjk0NjM0QzAuNDg4Nzc3IDg2IC0xLjM0MDEyIDgxLjkwOTUgMC45NjUzNjYgNzkuMzMyOEwyOSA0OEwwLjk2NTM2NiAxNi42NjcyQy0xLjM0MDEyIDE0LjA5MDUgMC40ODg3NzcgMTAgMy45NDYzNCAxMEg2MS4yMTE2WiIvPiYjeGE7PC9tYXNrPiYjeGE7PGcgbWFzaz0idXJsKCNtYXNrMCkiPiYjeGE7PHBhdGggZmlsbD0idXJsKCNwYWludDBfbGluZWFyKSIgZD0iTTYzIDEwTDI5IDQ4TC01IDEwSDYzWiIvPiYjeGE7PGcgZmlsdGVyPSJ1cmwoI2ZpbHRlcjBfZikiPiYjeGE7PHBhdGggZmlsbC1vcGFjaXR5PSIwLjI0IiBmaWxsPSJibGFjayIgZD0iTTYzIDEwLjRMLTUgODYuNEg2M0w5NyA0OC40TDYzIDEwLjRaIi8+JiN4YTs8L2c+JiN4YTs8ZyBmaWx0ZXI9InVybCgjZmlsdGVyMV9mKSI+JiN4YTs8cGF0aCBmaWxsLW9wYWNpdHk9IjAuMzIiIGZpbGw9ImJsYWNrIiBkPSJNNjMgMTJMLTUgODhINjNMOTcgNTBMNjMgMTJaIi8+JiN4YTs8L2c+JiN4YTs8cGF0aCBmaWxsPSJ1cmwoI3BhaW50MV9saW5lYXIpIiBkPSJNLTUgODZMNjMgMTBMOTcgNDhMNjMgODZILTVaIi8+JiN4YTs8cGF0aCBmaWxsPSJ1cmwoI3BhaW50Ml9saW5lYXIpIiBkPSJNLTUgODZMNjMgMTBMODAgMjlMMjkgODZILTVaIi8+JiN4YTs8L2c+JiN4YTs8L2c+JiN4YTs8L2c+JiN4YTs8L3N2Zz4=;container=1;" parent="QCCOXQuaux2CzOiZ1sox-132" vertex="1">
          <mxGeometry x="65" y="10" width="50" height="50" as="geometry">
            <mxRectangle x="40" y="10" width="50" height="40" as="alternateBounds" />
          </mxGeometry>
        </mxCell>
        <mxCell id="QCCOXQuaux2CzOiZ1sox-134" style="edgeStyle=orthogonalEdgeStyle;rounded=0;orthogonalLoop=1;jettySize=auto;html=1;entryX=0.25;entryY=0;entryDx=0;entryDy=0;strokeWidth=4;" parent="1" source="QCCOXQuaux2CzOiZ1sox-131" target="QCCOXQuaux2CzOiZ1sox-3" edge="1">
          <mxGeometry relative="1" as="geometry" />
        </mxCell>
        <mxCell id="QCCOXQuaux2CzOiZ1sox-145" value="checked-out pages" style="edgeLabel;html=1;align=center;verticalAlign=middle;resizable=0;points=[];fontSize=16;" parent="QCCOXQuaux2CzOiZ1sox-134" vertex="1" connectable="0">
          <mxGeometry x="0.2566" relative="1" as="geometry">
            <mxPoint x="-93" y="-1" as="offset" />
          </mxGeometry>
        </mxCell>
        <mxCell id="QCCOXQuaux2CzOiZ1sox-135" style="edgeStyle=orthogonalEdgeStyle;rounded=0;orthogonalLoop=1;jettySize=auto;html=1;strokeWidth=4;entryX=0.5;entryY=0;entryDx=0;entryDy=0;" parent="1" source="QCCOXQuaux2CzOiZ1sox-25" target="QCCOXQuaux2CzOiZ1sox-131" edge="1">
          <mxGeometry relative="1" as="geometry">
            <mxPoint x="10" y="90" as="targetPoint" />
            <Array as="points">
              <mxPoint x="80" y="5" />
            </Array>
          </mxGeometry>
        </mxCell>
        <mxCell id="QCCOXQuaux2CzOiZ1sox-136" value="" style="group" parent="1" vertex="1" connectable="0">
          <mxGeometry x="390" y="200" width="180" height="130" as="geometry" />
        </mxCell>
        <mxCell id="QCCOXQuaux2CzOiZ1sox-137" value="&lt;font style=&quot;font-size: 16px;&quot;&gt;&lt;br&gt;&lt;br&gt;&lt;br&gt;Power Automate&lt;br&gt;(SSW.Dory.GitHub)&lt;/font&gt;" style="rounded=0;whiteSpace=wrap;html=1;" parent="QCCOXQuaux2CzOiZ1sox-136" vertex="1">
          <mxGeometry width="180" height="130" as="geometry" />
        </mxCell>
        <mxCell id="QCCOXQuaux2CzOiZ1sox-138" value="" style="shape=image;imageAspect=0;aspect=fixed;verticalLabelPosition=bottom;verticalAlign=top;image=data:image/svg+xml,PHN2ZyB4bWxucz0iaHR0cDovL3d3dy53My5vcmcvMjAwMC9zdmciIGZpbGw9Im5vbmUiIHZpZXdCb3g9IjAgMCA5NiA5NiIgaGVpZ2h0PSI5NiIgd2lkdGg9Ijk2Ij4mI3hhOzxkZWZzPiYjeGE7PGZpbHRlciBpZD0iZmlsdGVyMF9mIj4mI3hhOzxmZUZsb29kIHJlc3VsdD0iQmFja2dyb3VuZEltYWdlRml4IiBmbG9vZC1vcGFjaXR5PSIwIi8+JiN4YTs8ZmVCbGVuZCByZXN1bHQ9InNoYXBlIiBpbjI9IkJhY2tncm91bmRJbWFnZUZpeCIgaW49IlNvdXJjZUdyYXBoaWMiIG1vZGU9Im5vcm1hbCIvPiYjeGE7PGZlR2F1c3NpYW5CbHVyIHJlc3VsdD0iZWZmZWN0MV9mb3JlZ3JvdW5kQmx1ciIgc3RkRGV2aWF0aW9uPSIwLjQiLz4mI3hhOzwvZmlsdGVyPiYjeGE7PGZpbHRlciBpZD0iZmlsdGVyMV9mIj4mI3hhOzxmZUZsb29kIHJlc3VsdD0iQmFja2dyb3VuZEltYWdlRml4IiBmbG9vZC1vcGFjaXR5PSIwIi8+JiN4YTs8ZmVCbGVuZCByZXN1bHQ9InNoYXBlIiBpbjI9IkJhY2tncm91bmRJbWFnZUZpeCIgaW49IlNvdXJjZUdyYXBoaWMiIG1vZGU9Im5vcm1hbCIvPiYjeGE7PGZlR2F1c3NpYW5CbHVyIHJlc3VsdD0iZWZmZWN0MV9mb3JlZ3JvdW5kQmx1ciIgc3RkRGV2aWF0aW9uPSI0Ii8+JiN4YTs8L2ZpbHRlcj4mI3hhOzxsaW5lYXJHcmFkaWVudCBncmFkaWVudFVuaXRzPSJ1c2VyU3BhY2VPblVzZSIgeTI9IjEwIiB4Mj0iMjkiIHkxPSI1NSIgeDE9IjQzIiBpZD0icGFpbnQwX2xpbmVhciI+JiN4YTs8c3RvcCBzdG9wLWNvbG9yPSIjMEQzNkE1Ii8+JiN4YTs8c3RvcCBzdG9wLWNvbG9yPSIjMTE1MkQ0IiBvZmZzZXQ9IjEiLz4mI3hhOzwvbGluZWFyR3JhZGllbnQ+JiN4YTs8bGluZWFyR3JhZGllbnQgZ3JhZGllbnRVbml0cz0idXNlclNwYWNlT25Vc2UiIHkyPSI4NiIgeDI9IjQ2IiB5MT0iMTAiIHgxPSI0NiIgaWQ9InBhaW50MV9saW5lYXIiPiYjeGE7PHN0b3Agc3RvcC1jb2xvcj0iIzg0Q0FGRiIvPiYjeGE7PHN0b3Agc3RvcC1jb2xvcj0iIzYxQjFGQiIgb2Zmc2V0PSIxIi8+JiN4YTs8L2xpbmVhckdyYWRpZW50PiYjeGE7PGxpbmVhckdyYWRpZW50IGdyYWRpZW50VW5pdHM9InVzZXJTcGFjZU9uVXNlIiB5Mj0iODYiIHgyPSIzNy41IiB5MT0iMTAiIHgxPSIzNy41IiBpZD0icGFpbnQyX2xpbmVhciI+JiN4YTs8c3RvcCBzdG9wLWNvbG9yPSIjM0I5MEY1Ii8+JiN4YTs8c3RvcCBzdG9wLWNvbG9yPSIjMkE3OEVFIiBvZmZzZXQ9IjEiLz4mI3hhOzwvbGluZWFyR3JhZGllbnQ+JiN4YTs8Y2xpcFBhdGggaWQ9ImNsaXAwIj4mI3hhOzxyZWN0IGZpbGw9IndoaXRlIiBoZWlnaHQ9Ijk2IiB3aWR0aD0iOTYiLz4mI3hhOzwvY2xpcFBhdGg+JiN4YTs8Y2xpcFBhdGggaWQ9ImNsaXAxIj4mI3hhOzxyZWN0IGZpbGw9IndoaXRlIiBoZWlnaHQ9Ijk2IiB3aWR0aD0iOTYiLz4mI3hhOzwvY2xpcFBhdGg+JiN4YTs8L2RlZnM+JiN4YTs8ZyBjbGlwLXBhdGg9InVybCgjY2xpcDApIj4mI3hhOzxnIGNsaXAtcGF0aD0idXJsKCNjbGlwMSkiPiYjeGE7PG1hc2sgaGVpZ2h0PSI3NiIgd2lkdGg9Ijk3IiB5PSIxMCIgeD0iLTEiIG1hc2tVbml0cz0idXNlclNwYWNlT25Vc2UiIGlkPSJtYXNrMCI+JiN4YTs8cGF0aCBmaWxsPSJ3aGl0ZSIgZD0iTTYxLjIxMTYgMTBDNjIuMzQ5NiAxMCA2My40MzM3IDEwLjQ4NDcgNjQuMTkyNSAxMS4zMzI4TDk0LjYxMzYgNDUuMzMyOEM5NS45NzIzIDQ2Ljg1MTQgOTUuOTcyMyA0OS4xNDg2IDk0LjYxMzYgNTAuNjY3Mkw2NC4xOTI1IDg0LjY2NzJDNjMuNDMzNyA4NS41MTUzIDYyLjM0OTYgODYgNjEuMjExNiA4NkgzLjk0NjM0QzAuNDg4Nzc3IDg2IC0xLjM0MDEyIDgxLjkwOTUgMC45NjUzNjYgNzkuMzMyOEwyOSA0OEwwLjk2NTM2NiAxNi42NjcyQy0xLjM0MDEyIDE0LjA5MDUgMC40ODg3NzcgMTAgMy45NDYzNCAxMEg2MS4yMTE2WiIvPiYjeGE7PC9tYXNrPiYjeGE7PGcgbWFzaz0idXJsKCNtYXNrMCkiPiYjeGE7PHBhdGggZmlsbD0idXJsKCNwYWludDBfbGluZWFyKSIgZD0iTTYzIDEwTDI5IDQ4TC01IDEwSDYzWiIvPiYjeGE7PGcgZmlsdGVyPSJ1cmwoI2ZpbHRlcjBfZikiPiYjeGE7PHBhdGggZmlsbC1vcGFjaXR5PSIwLjI0IiBmaWxsPSJibGFjayIgZD0iTTYzIDEwLjRMLTUgODYuNEg2M0w5NyA0OC40TDYzIDEwLjRaIi8+JiN4YTs8L2c+JiN4YTs8ZyBmaWx0ZXI9InVybCgjZmlsdGVyMV9mKSI+JiN4YTs8cGF0aCBmaWxsLW9wYWNpdHk9IjAuMzIiIGZpbGw9ImJsYWNrIiBkPSJNNjMgMTJMLTUgODhINjNMOTcgNTBMNjMgMTJaIi8+JiN4YTs8L2c+JiN4YTs8cGF0aCBmaWxsPSJ1cmwoI3BhaW50MV9saW5lYXIpIiBkPSJNLTUgODZMNjMgMTBMOTcgNDhMNjMgODZILTVaIi8+JiN4YTs8cGF0aCBmaWxsPSJ1cmwoI3BhaW50Ml9saW5lYXIpIiBkPSJNLTUgODZMNjMgMTBMODAgMjlMMjkgODZILTVaIi8+JiN4YTs8L2c+JiN4YTs8L2c+JiN4YTs8L2c+JiN4YTs8L3N2Zz4=;container=1;" parent="QCCOXQuaux2CzOiZ1sox-136" vertex="1">
          <mxGeometry x="65" y="10" width="50" height="50" as="geometry">
            <mxRectangle x="40" y="10" width="50" height="40" as="alternateBounds" />
          </mxGeometry>
        </mxCell>
        <mxCell id="QCCOXQuaux2CzOiZ1sox-143" style="edgeStyle=orthogonalEdgeStyle;rounded=0;orthogonalLoop=1;jettySize=auto;html=1;exitX=1;exitY=0.5;exitDx=0;exitDy=0;strokeWidth=4;" parent="1" source="QCCOXQuaux2CzOiZ1sox-30" edge="1">
          <mxGeometry relative="1" as="geometry">
            <mxPoint x="525" y="200" as="targetPoint" />
          </mxGeometry>
        </mxCell>
        <mxCell id="QCCOXQuaux2CzOiZ1sox-144" style="edgeStyle=orthogonalEdgeStyle;rounded=0;orthogonalLoop=1;jettySize=auto;html=1;entryX=0.75;entryY=0;entryDx=0;entryDy=0;strokeWidth=4;" parent="1" source="QCCOXQuaux2CzOiZ1sox-137" target="QCCOXQuaux2CzOiZ1sox-3" edge="1">
          <mxGeometry relative="1" as="geometry" />
        </mxCell>
        <mxCell id="QCCOXQuaux2CzOiZ1sox-146" value="stale pull requests" style="edgeLabel;html=1;align=center;verticalAlign=middle;resizable=0;points=[];fontSize=16;" parent="QCCOXQuaux2CzOiZ1sox-144" vertex="1" connectable="0">
          <mxGeometry x="0.2978" y="1" relative="1" as="geometry">
            <mxPoint x="89" as="offset" />
          </mxGeometry>
        </mxCell>
        <mxCell id="QCCOXQuaux2CzOiZ1sox-147" style="edgeStyle=orthogonalEdgeStyle;rounded=0;orthogonalLoop=1;jettySize=auto;html=1;entryX=0.5;entryY=1;entryDx=0;entryDy=0;strokeWidth=4;" parent="1" source="QCCOXQuaux2CzOiZ1sox-3" target="QCCOXQuaux2CzOiZ1sox-103" edge="1">
          <mxGeometry relative="1" as="geometry">
            <Array as="points">
              <mxPoint x="265" y="720" />
              <mxPoint x="895" y="720" />
            </Array>
          </mxGeometry>
        </mxCell>
        <mxCell id="QCCOXQuaux2CzOiZ1sox-148" value="trigger flow" style="edgeLabel;html=1;align=center;verticalAlign=middle;resizable=0;points=[];fontSize=16;" parent="QCCOXQuaux2CzOiZ1sox-147" vertex="1" connectable="0">
          <mxGeometry x="-0.1543" y="2" relative="1" as="geometry">
            <mxPoint x="10" y="22" as="offset" />
          </mxGeometry>
        </mxCell>
        <mxCell id="QCCOXQuaux2CzOiZ1sox-149" value="1" style="ellipse;whiteSpace=wrap;html=1;aspect=fixed;strokeWidth=2;fontFamily=Tahoma;spacingBottom=4;spacingRight=2;strokeColor=#d3d3d3;" parent="1" vertex="1">
          <mxGeometry x="405" y="550" width="20" height="20" as="geometry" />
        </mxCell>
        <mxCell id="QCCOXQuaux2CzOiZ1sox-154" value="2" style="ellipse;whiteSpace=wrap;html=1;aspect=fixed;strokeWidth=2;fontFamily=Tahoma;spacingBottom=4;spacingRight=2;strokeColor=#d3d3d3;" parent="1" vertex="1">
          <mxGeometry x="520" y="690" width="20" height="20" as="geometry" />
        </mxCell>
        <mxCell id="QCCOXQuaux2CzOiZ1sox-155" value="3" style="ellipse;whiteSpace=wrap;html=1;aspect=fixed;strokeWidth=2;fontFamily=Tahoma;spacingBottom=4;spacingRight=2;strokeColor=#d3d3d3;" parent="1" vertex="1">
          <mxGeometry x="720" y="555" width="20" height="20" as="geometry" />
        </mxCell>
        <mxCell id="Tt-dcFcwuq6uD6W73krz-2" value="" style="group" vertex="1" connectable="0" parent="1">
          <mxGeometry x="715" y="-283" width="520" height="163" as="geometry" />
        </mxCell>
        <mxCell id="QCCOXQuaux2CzOiZ1sox-71" value="" style="shape=image;imageAspect=0;aspect=fixed;verticalLabelPosition=bottom;verticalAlign=top;image=data:image/png,iVBORw0KGgoAAAANSUhEUgAAAhAAAABzCAYAAADJ/ztUAAAAAXNSR0IArs4c6QAAAG5lWElmTU0AKgAAAAgAAwESAAMAAAABAAEAAAExAAIAAAARAAAAModpAAQAAAABAAAARAAAAABBZG9iZSBJbWFnZVJlYWR5AAAAA6ABAAMAAAABAAEAAKACAAQAAAABAAACEKADAAQAAAABAAAAcwAAAABQyR+gAAABy2lUWHRYTUw6Y29tLmFkb2JlLnhtcAAAAAAAPHg6eG1wbWV0YSB4bWxuczp4PSJhZG9iZTpuczptZXRhLyIgeDp4bXB0az0iWE1QIENvcmUgNi4wLjAiPgogICA8cmRmOlJERiB4bWxuczpyZGY9Imh0dHA6Ly93d3cudzMub3JnLzE5OTkvMDIvMjItcmRmLXN5bnRheC1ucyMiPgogICAgICA8cmRmOkRlc2NyaXB0aW9uIHJkZjphYm91dD0iIgogICAgICAgICAgICB4bWxuczp0aWZmPSJodHRwOi8vbnMuYWRvYmUuY29tL3RpZmYvMS4wLyIKICAgICAgICAgICAgeG1sbnM6eG1wPSJodHRwOi8vbnMuYWRvYmUuY29tL3hhcC8xLjAvIj4KICAgICAgICAgPHRpZmY6T3JpZW50YXRpb24+MTwvdGlmZjpPcmllbnRhdGlvbj4KICAgICAgICAgPHhtcDpDcmVhdG9yVG9vbD5BZG9iZSBJbWFnZVJlYWR5PC94bXA6Q3JlYXRvclRvb2w+CiAgICAgIDwvcmRmOkRlc2NyaXB0aW9uPgogICA8L3JkZjpSREY+CjwveDp4bXBtZXRhPgpRV3oSAAAs3ElEQVR4Ae1dXXbbOLImaWder3oFI6+g7Z7MfY3sdM+Zt7ZXEHkFba/A8Qpir8DKCuJ+m9P5sfx6JzPRrCC6K2jd144l3u+DCBqiSBCkSJGSS+fYBPFTKHwkgUJVAfA8+QkCgoAgIAgIAoKAICAICAKCgCAgCAgCgoAgIAgIAoKAICAICAKCgCAgCAgCgoAgIAgIAoKAICAICAKCgCAgCAgCgoAgIAgIAoKAICAICAKCgCAgCAgCgoAgIAgIAoKAICAICAKCgCAgCAgCgoAgIAgIAoKAICAICAKCgCAgCAgCgoAgIAgIAoKAICAICAKCgCAgCAgCgoAgIAgIAoKAICAICAKCgCAgCAgCgoAgIAgIAoKAICAICAKCgCAgCAgCgoAgIAgIAoKAICAICAKCgCAgCAgCgoAgIAgIAoKAICAICAKCgCAgCAgCgoAgIAgIAoKAICAICAKCgCAgCAgCgoAgIAgIAoKAICAICAKCgCAgCAgCgoAgIAgIAoKAICAICAKCgCAgCAgCgoAgIAgIAoKAICAICAKCgCAgCAgCgoAgIAgIAoKAICAICAKCgCAgCAgCgoAgIAgIAoKAICAICAKCgCAgCAgCgoAgIAgIAoKAICAICAKCgCAgCAgCgoAgIAgIAoKAICAICAKCgCAgCFSNgF81wadC76effuq/f/9+8FTau2o7f/zxx97u7u74H//4x3hVWlI+G4H/6fX2/V2vY+YIH7zJfw+HIzNuneF//tjrJevbffDGB8PhOBkv94KAILA5CIgAUfBZUXCYed4FgOt+eP++Mfy+vHx5HIbhG7DfVU0Iw6EfhufolBsbKGxQ/vi3v732wvAi9LzBs52dSxEkbGi5pX3p9bqzIDgGpi88L+yh1ILgkEJl4oXeKPTDUeB5/wlm3rDqQVwJMOAJ7+ILz/fIU95vDJ7Goe/f+/5stDNVPE2yCilhZBb0stIDbzb+y6fhICu9aDww7jwEwZmt3O5sdgUcM3m2lU1LK9NGCuheEPTS6LnG4ZmN0aeMfd+fYHI0ci0n+Z4uArtPt+nFWq4FB3TW3cakhojlL+gswtns3UILfL+HTvjLv46Ozv/y6dPVQlqLboBd/2E67b/86ScRJEo+Fw4w/tS/mKoBGm+k+6/DQd338K6gzBRSxOeXhyMMGsNw5r1dRUvxr6NeP/T8C5DtQpjxUI/rr4u8XZ8CUOjPeTo8HGIQ+zWYzW6TAo4fUkgKWU/qDzwwfpCaWCJyFnjH4C2zPpKc7ngcbG9LkE8twmfr+UogTE2fecHlUgKFBwjoS/EFIvDU8NzQWlx+/Okn3g1xP8L9/cfffqusfSQsv+1AQASInOfYJsFBsxpOp+hg0ntoxL6BEPECne9plbMiXXdVV/ApgkRBMKlxmPr+jTfDzD798RekiOyhtw+BYt8PvDMKE5iFXkMzwYF74kJMCTMz/waDTNclv1MeCDkhBIpp4L/5fHR06/mzt88/DtUARg0FBR/bjzz99cNwaMvjmhZ6wQuCZP2Fwc9Ir26AVYKhpcZgNrSkVplEoaSHV+0MAsUEKNzi/Xj74cOHddVfZVuEVg0IiACRAWobBYeYVWgb4nBKAB/8cRgE+xhwTjAQjFKytCYKvIog4fA0Pr/sHU9DCA/5ZgoHahlZIExgBv/mYHg3yMixEP3Po6PX/my1We8CwdSb8NgLlcSgBmgKNhR0KPikZmfk3MQxzEwvlJCtCXgk45LnMbctNDdf2HJ4npNw5PuXdiqJ1Nnse0xKOhASuvgmu4lU3nb4rSJPH8LEEOFzMXOkoPTEokSASDzwVgsOj7xOEOw83qaGuhAiWm/S0JyzcxLThkZj8arMA3PhYTGhhjvM/AcuZKEZgDAT9l3yrpwHGgiTBk0u1JqYcWZY+V+YESXD9OdA0a5D8S7zrmICiutQwg+G8axfCLOCw+/Db7+9dsiWmqUHvw84PO/Dp+JnaiCQKYk1NETeF/g1XT388cfl0FFblVqZRG40AjnKwI1uWyHmKTjALv8VH8YNBrOurTDyDHZ3dvZseWpNC8ORK320hSaNd3QGcy1TRz52aODlFNiNbfSRh4LEVzyLm7///e9dW96nkMaBiVqBdbV1d+Zd59VFgWZtwgPeF22+iPkKvF/jcFogzwSQViYlbicIeinRqVFF8qYSiCLzhB/6htjKV5FGgYBmCnyz53AUP8A3ecA+b4l2GJ7tPnt2J9/pEjJPJuLJCxBlBIeP79+fNrmKgB7rRd5QdAA0aXyBEJGcSRQhs3JeLnsFdnuY1RyC2NBGEDyLIAGAgp3CZguutBgu/NmANtNQDiaCsRmVDNMPo4RAM17gx1dOh0nSqfeo620ywUWFr0wByYIF76HpoG+D069IXivBHOFnOlub/0PMJk0V7PPUpCkMb+OEeWAfAv8X9KON9i0JnuR2TQg8WRNGEVMFpe82LT0M6BkdgqtiP2XS+HJ0dDXzvP8LgmDoPTw0shY/csIaqqVnvvLc72U1JRIknuSqjbnpYkl9nAbVGL7zl7ZlmdRAPeyCFlTkvo+BMcWHAPFLg3WysmkQXED7kK/NohAThNe2ZZkURrCCYR+v8guYJI5RVzdZH5ZIDpJx6p70bYOtMgXYhdRUumakjb6Zj2HkJcauzqfJ4ryPTCZpSTqu0f08oknTCftO9D7Uiun3gL4T1EQcNDmx0iDJdX0IPDkBYpMFh/i1mE5HsE/Gt0UC+NDPMCh7WAZ6QRr/PjqaIG4Iar9682VzkyL0VskrgoQdPawAwAwYT8f68wc7sxn3/7A+tyh9CFL8e83BjksUw9B/FQ3EE66+QFrOD06NOT8IA+d/uctfShxpO8Ygx3rPKVDM97UIf8F9l1qLKA9uF39q34j53heLCdEd3vHvUxMcI+m0mgt9ghaEoR6iHDBMFIxuaQaBD0p6oor1h5bEtSVRk4h+dARO71BpJ6q4A03EO/hPHIpPxNoeReMVlRuFGme7OAMUHIr6ODRtqshqZdSpTrLSC8bTu/oYncENzBy/K38J7DNRkMZK2ZW99f37Q2XaWFaRLtAGr0/CtMEBHsLD8ULjl2782+efPpVarkuBghsuPb+7O9yZhXvYdyCXjhpUHweMJW4YoYSHkvuQ8L3mHibPP93tzWbhQbgTXqZWgkgIwLdZafP41VZGUCtip5+SOl/OmZLgFoVv0Fon3v17N0r156JZA/wcoiazH9rf/dOfLuqvXWpoCwJbL0Bsk+DAl4YDCwb513W9QOgUjtE530Ez8RXmjn5d9aTRVYLEhw8ntLWiMx2k5dFx4HOrBQllbtCNzbhS85CRVCiaA/eSo2IKhTAM9lOizSglAJgRZcNc0WDzdYhWPJiDV7KqjoNJIFkmvo9MKvG9EWCdGfWuJrRALOoZ9SwFm/B/WGLCiKAQAU3QqRGFJoRnyjS5ECk324rA1goQBQSHCdY2Xz58+/ZdFRoH7hLJWfy/Dw/v+FflYE9a0BJ8xeBJKb9T80vZxSB+wzawTTXXtUCedlTttPVUBYlgljNYwxEx0kQtYFfnDd47q1kA6vfbOutfpm1X6ZddGUFTCuri3/IPW4HDyjBaTlAxajlnRpo1OhJ2bN/0uJJlolYuiieqHSp9/2qh5NyvaSFKbrYTga3zgaDgACfBCww8XXR4th8Fh2usY76qymanzqfAFtOq3minSIR7mM2/wvKr84OPH0t1sNHW1TdoTNfWoFrSuEX2bNaj8yV8JC6p+q6lnhSikUPWKZyzLr9h901g2U/JpqKYtk37SOAdpmkp+xf6o+zEmlJCOE9amMJs5D811ZxKFqzc4zs/Tk1EJNJe4HKVlZ4VD9+QXlaaXgEFp9XUPJHQUvjZbIr/Qxou3AsCyzn7SOtE6T1qISIfp7QiK8Vx2ejDw0PXJFJXXWYdruG28+faDpd8WyNANCk4aKCxMuKNDieuXaRRK8EDr2hrHifSM2+V1oEOjw3/0BmfwenyGLOzte9uaQoSD7NZH2pSOtnpzmoBmW0TJBYaZ9yE3mxi3LYiGPpZqv162KNKPwgsEk3GIJ/Hjc15lQd+qfJobNovWs55lZZmi4uEncwsvje7z0xsOIETMGwqdY3vMu6nIGi9AlvDKlhD376v6EWbWmGiAGebRfyjszuwhBmbjGGvjG/fvt1WMTFUdc9XnFB2fksH0rQ2cfxRz973jy38segwLo/l+Kts+BXTsQRe/u1vPNiO/aX6QdN+UgUumt7GmzD44BydI7WpYo8PrUoQCaZV7anR5mweJgjM5t/Ql0FHp12ZTvMBXtr4o0zLt+Y4vRS0v+Z6VXUUJPjs8BHA6U9t1Zs5iAK3rfaR8EN/v4lnYKvTwUfCVrxwWqTSH1sKlvSDSNcusB4sS+WJoaPMOqPlnJnpmQnZdbIIl+hmFm1BAjW5Jhv8/rAio2PGFQ1TiwHB4A7C1RcIBmcov59DAxoyXzmEQyPyFULNm1V5gFDANvT4Bz4oFC38KGDo8Yd1LySm3YThBNE99WcM7GlZq4jzZzPy3Iv+vKrHvY0VINoiOBgPmS+a0w8v4lkkSPTTCkB42Ef6F7yQvbT0puPA/w00IzdN8cGPYNsFiXimmwWy7/GsE+d3LotMkXgeA27Ln7eLoq1s+bRq/SCiDaiycJ1QexhpECdZPEfLObOSl+Jd/B+KaC2XKlhDBL9J9AsDs6pnz54dm/euYQ76EB7eof+7Q5leSjliPzT+Ril5OhQ6KEhwFp6SvnKU0jpAuIGw1E0QIz9D44/88jfBFuGm43OHNFRKDf9oSjGFGvD5tupqNk6AaKHgoJ4JPnC+NOMCD6jDgfjfL19+MZ0UI+GBH063AK21Z8XL2G9SiGCDt1mQmE1z36XOQxCcrfPBB17wv9b6MPuuYgdIax2JxDzVPr6xF4ki9tuZ93N2BlNYMcOLJYouAc139syua7Hmhu8S22zDj6cY9mAf/fs+t8c2Bz7VKizvhhnjhM7u2F6bf4fG3wHCcEvBDrdzh049YLNoB4LtOwgklX4rkfBwo3jDP7xnY/SJpxF/5Mfk7zvGI/0wMscO43IFdjvVZVyv8BM5NvJOaNYx7isJbowA0VbBwXwKeEEuzXuncBjuc9kkB2PlhBkEdyjXcSrbcCa0t3EhghBoQQIfLT9S63kb5Bk2ytafteGgnodNNrxY54CNI+JzOyB/5q/13JV81b7dNJD8hGA/7yXj9D3enfu0sI7TV8sSUJ1l4YrB58VCRPLGn9V+/kWyyjL30z/+GCbK9RL31ltqHoAF+799IyP3mziAk+QJV3zwWzfSFoJqGTjO7zBMnI/pvv+mKiGCQg74fPR3C8NzrBrbo39EFn+M57JXMoT2vI0Zg9lDaQriiOoCELhi3wfwa8WubK2tFyBcBQcANIb0yeWYtfg4uAB88OnTAFLw0CVvMg9eqj4dLRHfSaa1+Z58N62JMPHhR8yPGXxtvCDhsiwSAzaFzzMTg7rCSo2ef45FZxr4X9cl2ESq/bGlzc5+EMoklLLFt6Y9CyIHSkTk7MnQBa2uLpd/tQs53A48n0bzOaLBUw2S5AbfYLcIV0rzYPR/6NMHmBQc6IHXlRb5UM6J8zN3JnE5CBFVmDPA1w1oqn6a/QwEl6u4DodApAmI+UpoChwo5Geh/4iJPwb66/xSxXO0VoAoIjjwIXLQqMM5siik/s7OZdEym54f+LdKiCCe2yBIuJyMybZC0Hjzmft1FBq0WLL4D+pgl46oQ8Hmn0e9XGfh4hwsl8gTtPJNBHOa3Np7mXocMzE3tsrbyIpbcsclLYHomXUys8z3+4gHm8x8LUnA4DoyWeFAZt5nhenwiLR9nU7hgXvB6PsyV2ok0DcdomyMH97fmxUcK3vg8zXoKT5B+5T9DO4L/SjgoH23upCpKdBxq17VqpWICOoaFxXCXOtvnQBRRnAo8xBdASqaD7q2IV/+ouU2PT8+pv66d650wcwUJJB/lFWG/LfNtMHZNQbHqyyeF+Lhf8CZ/2eawmoUJLj9NaaWmTiaPEGVf6a0EUdH6uwNM63KMFb03dvo4Xt8YUvXaVi+acmX5oeQFjen5lqnbc8JUoJWcjinuBn/YQL636KcKhX+fJWFLqpO/9Q3q1zVwBkubIne2Xn27NH8UJS4XjkBn4xVxh1TI4C+p0uzSFFWsvJTQALNY53uKPTr7IWurREgNl1wMFGHrfgS9xMz7imE0Wly8KrsQ6gSM37sVIcqR6u5h3QqeXx4rRIkoIW4dB2w5w0K+0qQgEYiOrsitZ2rRM6m4SnKu77f6MzCC/D0O4WbVbaXzuI5X8UfOr6T2WeP4L24T9YPB06Lb0I2LZOOXWiBGSBHODJptSGMwWq8wEcQ9BbuU264SZwZDaz5flX2i0wMQ00Q9Psr+B10QGcCs8NKPFKwQX851jzB4TT2V9BxZa/R6hfyqX7gdRAFK780LkBsk+Cgn8585liPzUnXUcMVs12o1XBU+Cq0w50dChHxy7sKrTrKKkcrfXDXBggSeJcmBQfsOWzQSHih/+7z0eFX+khU+UyovodQcF78+YR9bPz0heaWfx31+sXLp5cgRjlCVq5PQt5SyjQH0jwHTjcBbjv8H/STgcZkrMMuVw7kHNB1XvRBA6U10BFVXRe1EB42pCs/YPv+gGaIVVkzNQPA4HhVero8MHxlhCvhVdNLXhsTILZRcDDBRYdzhfuxGdfWMF648x8+fdrDSYgnP3z8eIDNRw7Aa7kPBKtKYP89a2tbNV+bJEhwwMbplIfgfaz5L3Dt0kdibkpQPgndAmUzs9KUASGCs7Di7wmEm9Dzb6oUbvJU/Xmmghw/Cb33wwIenCjYBJe85ZyRqam7QNS8mR9nXhxfk0bLw0kHQgyqb+tgmd876I5i2mHYj8MFA7tB4OIHlEs1oRmoZE+ISLPSiytPLK2N4ysKrF2A2HbBQT8XzoogVV7q+7ZeITxc8ghlkz/wPvKD4MSMKxJGuy+izrFIsUbyakECPB8Ai0EWE0hv1LRBIQLHbsMEU9ojH6YE7ZNQjXMjhYgVBBtCHQs3K68kCbxfs54d4/NMBRBAfs4qb3PStAkuecs584QaOMLdZ/G0NfG+H+OO728cDfS1NA/fsDnwc7OqXomKRtFeDiWKLhZRWgz4UuhYtP+VDpe9mpoV4qkOOytLzKHcWgUIPjA06gYPspvFGxuNdLWqYhUnlSz664xfZVnnuviEpmSQVhedQVcxZ7h6oafV3UQc1ab0+s47ShzvJgWJmyZ4pFD6/O7usPTMP2JaCxIrD9qgpwUbaBQuV8AE6/+xkgTmlrLLP80VEul8ZJsKlHmHJp+Mn9UPwS64WE0neUIN9q8eZrC0TdE9ozFDI1x5cGdnZ5F+EPQKV+L7izQKE1gsgB2H3xoxvRV8MxQZCLTHmh4cWk3aOrrS61oFiDzOITyoNfybLjiY7cRDfFSbmQktCSs1bBYvs5UObOpkkW1zPGcXavnY/KyNVrLKmT+0EXvRoD0pyeR80J4v/1zpWVGw+eunT6/JE9z+BiX5YbGuXv5ZioZdO5M5mOdtPW1z0owEl8xnYBeks4Uatj9fKCqFUmsKJTUAGIzu62SO3zYnqHEdYfgiDjsGYGL5j2NWp2zUEJg8qcMCnUouZ1IHZxmTc5haBsu5qo1plQDhY3bHw1No5qi2mc1QoxofL8dZM7W71crdL9Nyzmdl2bvypZUx44KWC04mrzpM6Z/rvPEO/o7VGhc6vo1Xc9BeSZCIln9WsTqCwujzT59OVxUkqCH5/PLwi3oHC4Cfp/LPNBmEQaxGX6rOyQ8he1aK7//FEk1EsG/AhX/pP7swlF5mw2IxueqaLGP2PDbv6whjjInrwLPpFq2jDh6Bw63mA/Rf6XDh66IZbliVqcXGx1oFCAA1wUMb2xhCmjJz8IQzduYrbPqRU039yZh9vKm/ltVqwPOgv0InSWUl3iE8HHz8GH8USdptu+dMCH/vuA9EJDgs4WHy7PAOm9lrDWtB4vmnO2zjDafGcgNPB6sj7tLegzLMG4IEePLPQWNcmA52hJz6/rtC5XJU/tkmg2xNAPosq28F+SuznDNTmIka7FJvIWxamBkCX9dkq07/h7gew68EwsRC/XGeNQdMp0zylNTMuLAT7f3Q13lB560O13ldqwAR2Zn30LhTNGpkaxjydNmZY3vT3yFM3EArsW/L37Y0HpCFNhy3ja8lfngWB07+5CZQ5JkaiegY8f5SXscIfzrl8231jx+cduiFr8cd/nKfFQSHAZ7pwao75NUFDE0b9JGAY+NBCVNCZ7qjTj+sjD0KN3TQhXCz5/nhSWHhBtoR7mbpylC+yn9ZUMjTBORsWa1YK7OcM1uYmbfWpV5XXNaaLwh6Zn1L+0KYiZ73X4u37b+rQ8iJNAXxeGjuIumKCE757Bt5ee7GwLivLbhWAUK3go3Tm/qwU9bxWVd02n3k+7JJ5g2oopw7vqx2rzG+C3xveKgX+OYxur2ydYPOJQaO+GMoS6eucpGZ4g2P+WWb8W51c+rCHgPqjJXvKDhQCM7J33gyHRtLmRIw66/CsTINgOcfh7cUbsIAy1ELaElozihmXnlUB6fwseQHYfdR8MbEMoXOQhQ1LojgX+ovfTnnsjBjFJ641Gvkb1NwQShAfzLOZA6Tl8y0NSWUme3XwRr6oWtNF+Hjwpp333+ly6Nfu9Xhuq+NCBC6UZTmtOc7OukrxE90Wsa1x06/7eYNtaVzCz6ODAzri8a2u5hxvq6vgvKUE2aKM1Dq5FDDZkk4KIdHB//22+shZtM5+VuXrE0JSiPhuP00VkP8UmdDqCWgIKE0Evnfu2IlCAJnnvDM7m38w2Fy30xHf/LCvF8M+8PF++w74HablQpzRM9My9N6QHs0NPNvVDjR72Gvg9FG8d8Qs4kDtjrRbpJO3ETa+fi9xqAeCyNOBFbI1KgAofmmCgedtDqGlZ02PuqxTku7Is+CeWPVpS9pdZSNox0Z/G+S9qFsU5PlxlBXniQjm7wvY6aA2ewWf4fRKYCDJvmvqm6lkfh452rW6LrtoLgad9RIKGdLJ8Em7Lv6Z+Sp/pe1AdmaAPg2WIUREwHrUk9odkz+k0KMSYdh9G/O9SbLtuA+HsjAy2QTBe8mMCROGDdiIRThV658JLbBHq1TS9oKAUIDRRBp3oBWYg92IA5GQ52WdcXHpjb4oXmjiqNas+pxjYdK9Ax5O675tyTfBLtXntDm3Yb2lDFT4IMdcA8IaMVO6rBztgEXmjVcfCOWB9l6uOf7sjOFScNBiMhbaqk5jFT/me+hH/r7Om+kCcj8VuHbcKvz5l0pENnymPzn4ZsnBNnqaTItmgk/4rlhB4E1iR3rTuzC6bwnBMbAY807wmvTPrDOVgkQGgReuT4Ws0BsmmPfIdAo08MDeKfMGz/+eFbYhmQQKhtkhwR+L8qWx8x3WLpscwUpPBxiMBg1x8K85qJmCggNY2CuNF80pa1j2VPTGO3MZufgYWzjwxxkbfmqSKMQEZ31YSUXhsG+NcNCosUEYGwYZV0JAaGmuECc7X9h8p80aSywjln7pvo/wN+hl2jLfeJ+8dZYEbGYsL67Nk0WyIvqk6Lmu+wJQUdwZI+FtsgUsjYAWytAaASojmHn/vDt23d0ZkP8RKelXTGAd5FPOclx9cY6zRvQPpQTHiA4YBDe+4FOZg5OpWntbiiuceGhlJkCmi28J2q3U3y0V09JzcpBEftGvLW+L8Fjh2TNV1GiGjBzHStnC855tqrxbO9t6dopE6rf77PyhWH+8s1kWVu9mNy8iPPDpBGHlwLZQshS1rZFGI58ZA0rA27bxmLb+cF7EmsQIJC9yuMXeX7WeTh2rLsva70AocEhMHRmo1MbPtRTxI90WsYVe/+v17zB+jJ4yYoe48yJQwoO6NjHzAQnxFPQucoq0KL4RoWHEmYKOP/Pl2FSs0VTWYuwXC8rOfslACjLAFcPq3mbQBXRiuSZAHaCefusNPMwSoEh7cTOOJs/rzNvq+4ifhcx7RYEko58YCn3zAh8jwt9+FpWRBiCHOoftwC6BRZMoQvjgHVPCKVlN5afJ0wgC3TrutkYAcIEgJ0/ndzo7Ia/WzMtI1y7eYN7KGTUnRZNh5lLnoCpzpxI5MAZGud4eU4T0e25xUZR0JgcQOhZ6ADWwWBRMwV4Ussw6d9ATRY1WuvgU+poDoE8P4hY82CYMxLcTvL3lEiUwG00CRgvp6iYDk2cwcxuisnbUyKDduPRCUc+D/1XPJPOYi5ILPGEaaeblbeqePS7cR3gcVwV3aroKDOqMabZ9oQw936gMNSEOWYjBQj9sAgY/k6MA5AmOi3tihcmNm9gl8s3VZo30gSBNB7woAc0V+Qtd+RBXBykQcPaprQ66oxT/E+nscakzro07TJmCn5QeN40fe1Rc/UU/Bs0XitfHZwaV66jIIHQDwsKftmmAGoetBkjnQ2LD0V6gTjWtpzzYdfrzrzZn+PMy4HUY8OXs7UrhkI9vrW+wZXTRkaRMB/3bxBCXhg0Kg+yv1djgKbcAh8MzYp5NQ/YAr/Ze0IYJiMIX29NGusKb7QAoUHi4BD5SezRKY6Dh07LuHaQ74xbF+Plf1eV6gz1DjLq81DfkOYKmihoh87MZyRwhk9hA3Rvjeimgjye/LQI/6syWsZMgTqHwPoQ78MeNVU0fa3Kx7aVz5sFe7P1C614tzL9Eeb4B/9X5DlYTQEwJwQ7XjeLHsr+mpWWF29dzjkLoAl9XAWyTKu84LJMa40x8Dkza8OzPDfvrWHDcRzljq15V0zEnhSL9GftPO00OoJb91upe0IkTUbrODgrDf6tECB0wzhY0CmOgwdexlPED3Va5pU2JGxlzNUb9GhVdqXMzPYE2EApvNwmcqmBV/k58Ijsgj8KGxi0TyBhnqCofqkKUlktO9ukTBbQiqxGya00l+NSsIvOpjhDqU5OSZqE5ssw4d/QhCovh79WJedtFpXnj1B1Y+bLKR+PIU6lX9AnIccU0LEtpcwpm8qejrQt50Sf9L0X+ULo/ObVKvSYGVsUpiYX7OwbLHEfgoFxbw2iXzOFtU6tS/GNGTuY4lgxtDLXZKL/eKqt6SipWVowbcDk0ZSGdVcztG3X6CUeUFKjfQ4fb9/WRqR3MQjdYIvjN/goBjzgpOhDiTQLJ+gQ9+GCrAY9V9OGjTem8XAq0B1ynwnw+gui8gbVPJL56dSa7Oxc/rCGD42CG216+DB+gTMQTU25/OF5jam6e/jjj61bSfH56PB3rJa43p3NBnivxrlgOGb4fHR0A3VY15bd92ejZDqd/3DUNrb+Di+5P0L0riezFb7HO80zON7Rw9X2231YdLiz5WUaMQOGYwS7+Fv6YYvs46XIeUQFZgSaT1IEIh+4h9nfLXHN4KmV0ZxwYXA7M5nDV3tq3ueFueyQfS7ydZgX3z77tspxiLTM+6xD/YwBWke16crxBxOoObaY5LJ/NLWpwP1Y95CmyWPdbdgqDUQaeLSz0bxBPwkMSpfIM0nLZ8StbN5A5zWi4FCV8KB5Y6dN3wmaNdCWkY6v/BqZW8pqTYrwQzMFl9vybAq06Q0+iq5D+RHyzZdhbug20w5t7GCwvpgG/tfPh4d3PKNiPlN3KJmShQN1JDz0U5LNqLFlFg0h278BT7+T1r+Oes47RJoV6DDbow7wyl314VOIyvtuNVnjajUJdI2McdDmwxBnygng3bxPzWJrZ6l9J1JrWUukEh4w4TIr4zfJ/taMywurQdH3r418PBm3Z9xXE/T9C5OQeQKmGd+WcDR5jbE0HSaJD7DuRrxOIpNHI6xvrQYiiWb0QF4j/jVffmglLoyHkMw+v58vkTnGADeGpHVZRDWXTrCaWHam/z462q+GWkxlDDxuvdnsGvTHcWxNAaoqOduAlM2PwemHSeqAS5VarXp0aknBTFgtgIGth4H7zeeXhyMvxCoYbLOMjZDGeasF6CwI35vjqcc15XbNA7mihsGNu7APYaI/DbwbCDhDOjnS/j+b5h9ANddmBK/A07FtRq75wOZXjjzpEvMrMSKPi7H2O6sPg71onMrlnHxWcYRDADPKoUO2xrNwJrwDjQG+xf4CMzjL6P1vvw0W4hxvqEHEBIKahw6LQAt5g3rQDZURGpcrxYB7htieTmE/UlS7rMuu84p+8Rq83qg65+aXK4Zpvoj7zIY1KU9GgDAfvDZvKEl3Lpn2zPRkGA8LMy/vBttlv8Es+ZoOK02+gJi57YOfVX4TOBqiw/dHIPIfCA3DdQgNS2YKtxZwGWYpk5Ib+Q3LpWaxOIIdA6MPKRhqejYAzzOh4g/QGcczXse3BbPgv3wcDgojAgEHJoEe6jsLIGlHPI1xP16g5Xtd3HfhpImfG08QnK7Kvpv0ZYCAU+hn0b440yG/NvNJGqEqBJc0ulXGZU68oNnlSqeydVFQQF98SQ0kabC/xYz7BkH6fa30A8/sK01hbjL99u18JaJrKhyZd4gDf/vU1nLcAT7H8yhs1gVThw43cX2SAoQGOprJDvlgvk2n1EjwwXR0esoVnXJ4gVnzBbQSPLPjNCVP/VGBfS15FgP4kG4xO3JeBZJFp0x8pPLkhwzVfP4PvI7R91/yI6pqJpJf68bm6KDX7S1wDwAL/py2lC5AE34sXrdA/uWsEGh2p97lcoJbTPGBPHvpp1uNj7loCoFQdfYYYw/tTB0cvu0kakml0M+TISHzXeCV6ia+3Qnuz8tqHkyG0RdfQYh4ASFiPjjiStMmB/uy3z8niOD5nVkPZu+nZemZdNYRJp8cZ4Bxn/VxFQk0txDMQz1G5W7WVTefT1qA0OBG2oRTfCznu3/60xnUiVQRdXV62jV6qKdpaWuI+75oHfiQzuE/cVW0XFX58eF2jRffRhbqcP+6SbuejbktTZvgyO/DVp3BAOGBB21BCJisgnmRgRzf9P0qdZlllUYBGhkzLjPcMv8HNWufn2uhBnTKosAm+RvCr6zS82MwQJ7ClNFFRfusDHX2cb8PQeC8iNlSaTrRj3OyRzr6B3qn0JTc6vtNuNJkC6Gqr3j1/Z/RprHmG+1pVPtAPkSA0E8D10gyfY2g8pPAh/MK4R7+WvWDgLOPl8qVpzGcLk9+aGDXSFcGmQ9YD55hxUeTpqEi/G5NXgxePMyqVcKD59/uTKvRlBUZyPO2wC7yzGkKiUw5ucXKnLuRRxQryV7n5dHp6E/+jN6ki/sO/ubm0Yz+Bd/pGH3PeR0CPvtfDP6HEBruyAf++GNfdwfz8RA8vrVpJJXgQ1+BMOwnJysoSwfPgaK4Qf8oONEHL3o+PVwnEfsTYtF0U0SAyHgCpp9E5LTSz8i6/mgf9maHHz72xkwWDuwxC/0brrdxGaZj+23Zxkjs2jKsmgY/isvd6ezqucMsP3zwJn6gOi8OMnX9oBIPoSm7G1RVAU0Djn4Q4+qFqIzlnMnGFdzjIlk89T4x+07NE0ViUMr9UcDnbPhjzUu6o0ncgdpfYnGJKM0RPQgX9EXjIDoymOY7ORd8sMFH4gf/oPDkfc18J+qs9JZL1dGGi4io+v7QylaYdkWAyHnUhp/EJY5X/UVJt3Y/iRyKlSSPQaVro4QXrFGThY03pI3QaV1v4owgp12VJT//dLf3+WXv2AuDn6GfOQZh1XFUUMEEav3B7szDapu7sSs9Dq5w3t3Dyo/j0It5ci2elw8zLP8a/jkll2tmk6cJZL5yJZ7RZmT2hxkJpaPxjmMViPKrstLIW0ljLVxf4hDC/Qj839ehbchjG6aGc2gU3qJ++k31Evn5LSTjElm2Z3JCp3363ZkNVKYNM6KhsAgQjsBHqvVzqNgutVORY9HKs+GjeovOaeGFMippr8lifkjMdRF7ptGuJxeMVgTcouGn6hTHWUAVJnYzDOFPkjcgxnBhBuaNoEW79zDTXWWwivwRBqA84L4S0x0sLw2DfXRmsJV7XcTzz+U3hoWbQuQ9zQbVz/yTLISXEHr2k7HmfYill+Z9FWEu53wIAg52mb/Am40zE4skcFvmIChSYjFvtK0zVj+M22JGxARjBCYP6eSOyRvNEi9w31tk/PEO/eIY7yJXl/1qM3U8lsgPEQ/UfZmfs74cfB404aCGHmthO+vWBLEelx++YfltGgLsvDEgvMMMoWfyjher7SYLk10JV4CA2udhd1k7QZND/QNzegOyjqzGbpJjCCHj9FISKwi4IaAEioeHrpl7myclqr04tyluL857Qnuv4vsGAyJANAj+qlV/efnyeEaHSvyCIKh858tV+ZPygoAgIAgIAqshgFUoZ5gs0pSjfjhh+LvIV0RHNXYVAaIx6KViQUAQEAQEAUHAjgBWYXzFQN1VuWAGhvZh5Q227DW6p65gNHOvRHIKAoKAICAICAKCQDEEuDQ1Fh5QtMmDs9I4FwEiDRWJEwQEAUFAEBAEGkYAO4D+ollQzpMt2whLBAj9dOQqCAgCgoAgIAi0BAHuqAntw7FmB6tLbnW4LVcRINryJIQPQUAQEAQEAUEgQoDbBSDY0YA0fXCW5sO8igBhoiFhQUAQEAQEAUGgBQjAfHFhsDFsy/4cBk9yFoYJhoQFAUFAEBAEBIGmEeBJouChq/ngAYM63KaraCDa9DSEF0FAEBAEBIEnjwAEhhsNQhudJzVvIkBoJOQqCAgCgoAgIAg0jABPUjWXbmKQvmyYpczqwaf8BAFBQBAQBAQBQaBpBLDvQx8ah1j7AH5GH96/P2iar6z6RQORhYzECwKCgCAgCAgCFSLAcy3SyDGeR5gnhAcPM/zTtPxtiRMNRFuehPAhCAgCgoAgsNUI4FTNOzSwh78R/ib4449LNfdVyPhH4QEnkg6MqNYF5Tjv1j0SYUgQEAQEAUFgyxFYEhiM9k7gRHn6oWW7Thr8xUExYcRQSEAQEAQEAUFAEKgRAd8fgfokrQaYL8Y4dfMSp23ufdwA4YFtEBNG2pOUOEFAEBAEBAFBoCYEuE317u5urIV4eHgYteWI7pqaLGQFAUFAEBAEBAFBQBAQBAQBQUAQEAQEAUFAEBAEBAFBQBAQBAQBQUAQEAQEAUFAEBAEBAFBQBAQBAQBQUAQEAQEAUFAEBAEBAFBQBAQBAQBQUAQEAQEAUFAEBAEBAFBQBAQBAQBQUAQEAQEAUFAEBAEBAFBQBAQBAQBQUAQEAQEAUFAEBAEBAFBQBAQBAQBQUAQEAQEAUFAEBAEBAFBQBAQBAQBQUAQEAQEAUFAEBAEBAFBQBAQBAQBQUAQEAQEAUFAEBAEBAFBQBAQBAQBQUAQEAQEAUFAEBAEBAFBQBAQBAQBQUAQEAQEAUFAEBAEBAFBQBAQBAQBQUAQEAQEAUFgZQT+H4t7+WIFIu9UAAAAAElFTkSuQmCC;" parent="Tt-dcFcwuq6uD6W73krz-2" vertex="1">
          <mxGeometry width="520" height="113" as="geometry" />
        </mxCell>
        <mxCell id="Tt-dcFcwuq6uD6W73krz-1" value="Architecture Diagram" style="text;html=1;align=center;verticalAlign=middle;resizable=0;points=[];autosize=1;strokeColor=none;fillColor=none;fontSize=31;fontStyle=1" vertex="1" parent="Tt-dcFcwuq6uD6W73krz-2">
          <mxGeometry x="90" y="113" width="340" height="50" as="geometry" />
        </mxCell>
      </root>
    </mxGraphModel>
  </diagram>
</mxfile>
